# xmcd
#
# Track frame offsets: 
#        150
#        14961
#        44789
#        64492
#        82371
#        93833
#        111264
#        136675
#        153886
#        175010
#        194485
#        211330
#        231697
#        251255
#
# Disc length: 3622 seconds
#
# Revision: 0
# Processed by: cddbd v1.5.2PL0 Copyright (c) Steve Scherf et al.
# Submitted via: ExactAudioCopy v1.0b4
#
DISCID=cf0e240e
DTITLE=Little Red Rooster Blues Band - Hijinx and Tomfoolery
DYEAR=2016
DGENRE=Blues
TTITLE0=Greasing the Weezer (Instrumental)
TTITLE1=Eyes Wide Open
TTITLE2=Back in Your Arms
TTITLE3=27 Dollars
TTITLE4=Bad Toupee
TTITLE5=Day Drinking Daddy
TTITLE6=Hurts My Mind
TTITLE7=She's Terrific
TTITLE8=Just for You
TTITLE9=Shot Me Down
TTITLE10=Can't You See?
TTITLE11=Easy Baby
TTITLE12=Honey with Some Money
TTITLE13=Hijinx and Tomfoolery (Instrumental)
EXTD=
EXTT0=
EXTT1=
EXTT2=
EXTT3=
EXTT4=
EXTT5=
EXTT6=
EXTT7=
EXTT8=
EXTT9=
EXTT10=
EXTT11=
EXTT12=
EXTT13=
PLAYORDER=
